<?xml version='1.0' encoding='utf-8'?>
<svg xmlns="http://www.w3.org/2000/svg" viewBox="0 0 99.015 122.5"> <g transform="translate(-293.35 -382.53)" stroke-miterlimit="10"> <path d="m341.72 433.79c35 0 45 10 48.325 30.107s1.6748 39.893-48.325 39.893-50-20-45-40 10-30 45-30" fill="#2e993a" fill-rule="evenodd" stroke="#1e8523" stroke-width="2.5"/> <path d="m331.72 433.79h25l-15 55z" fill="#fff" fill-rule="evenodd" stroke="#1e8523" stroke-width="2.5"/> <path d="m326.72 428.79 10 10-5 5z" fill="#2e993a" fill-rule="evenodd" stroke="#1e8523" stroke-width="2.5"/> <path d="m351.72 438.79 10-10-5 15z" fill="#2e993a" fill-rule="evenodd" stroke="#1e8523" stroke-width="2.5"/> <path d="m316.72 463.79c-5.3369 9.0674-7.9443 19.482-7.5 30" fill="none" stroke="#1e8523" stroke-width="1.25"/> <path d="m374.22 493.79c0.94238-10.264-0.78125-20.596-5-30" fill="none" stroke="#1e8523" stroke-width="1.25"/> <path d="m371.72 411.29c0 15.186-12.31 27.5-27.5 27.5s-27.5-12.314-27.5-27.5 12.314-27.5 27.5-27.5 27.5 12.31 27.5 27.5" fill="#ffd9b5" fill-rule="evenodd" stroke="#ffb068" stroke-width="2.5"/> </g> </svg>