<?xml version='1.0' encoding='utf-8'?>
<svg xmlns="http://www.w3.org/2000/svg" viewBox="0 0 410.82 363.9"> <g transform="matrix(1.2388 0 0 1.2388 -472.91 -435.67)" font-family="Adobe Caslon Pro" font-size="45.617" text-anchor="middle"> <path d="m561.6 351.69c-52.652 0-95.386 39.802-95.386 88.841s42.735 88.841 95.386 88.841c3.158 0 6.2688-0.14981 9.3484-0.42958v52.408h93.382c0.0727-1.422 0.12273-2.8571 0.12273-4.2958 0-29.109-15.065-54.946-38.314-71.146 18.95-16.239 30.848-39.521 30.848-65.377 0-49.038-42.735-88.841-95.386-88.841z"/> <path d="m547.55 530.87c-88.768 0-161.25 50.61-165.31 114.08h330.63c-4.0531-63.473-76.558-114.08-165.33-114.08z" fill="#fff" stroke="#000"/> <path d="m547.56 530.88c-42.574 0-81.42 11.631-110.75 30.75v83.312h221.5v-83.281c-29.339-19.133-68.158-30.781-110.75-30.781z" fill="#333"/> <path d="m547.56 530.87c-23.438 0-45.742 3.5388-65.95 9.9007-0.2908 2.5205-0.45003 5.073-0.45003 7.671 0 36.65 29.751 66.4 66.4 66.4s66.4-29.751 66.4-66.4c0-2.598-0.15923-5.1505-0.45004-7.671-20.215-6.3656-42.505-9.9007-65.95-9.9007z" fill="#fca"/> <path transform="matrix(.5944 0 0 .70726 332.73 228.28)" d="m485.71 325.22c0 68.641-55.645 124.29-124.29 124.29s-124.29-55.645-124.29-124.29 55.645-124.29 124.29-124.29 124.29 55.645 124.29 124.29z" fill="#fca" stroke="#784421" stroke-width="2"/> <path transform="matrix(.33769 0 0 .22468 434.26 338.66)" d="m554.29 199.51c0 74.953-80.589 135.71-180 135.71s-180-60.761-180-135.71 80.589-135.71 180-135.71 180 60.761 180 135.71z"/> </g> </svg>